<svg xmlns="http://www.w3.org/2000/svg" width="1280" height="760" viewBox="0 0 1280 760">
<rect width="1280" height="760" fill="#f8fafc"/>
<rect x="20" y="20" width="1240" height="720" rx="24" fill="#e2e8f0"/>
<rect x="40" y="40" width="1200" height="96" rx="16" fill="#0f172a"/>
<text x="70" y="82" font-size="30" font-family="Arial" fill="#ffffff" font-weight="700">Access Review Dashboard</text>
<text x="70" y="114" font-size="18" font-family="Arial" fill="#cbd5e1">Quarterly review decisions tied to business role and least privilege</text>
<rect x="40" y="170" width="180" height="54" fill="#1e293b" stroke="#334155"/>
<text x="52" y="203" font-size="16" font-family="Arial" fill="#ffffff" font-weight="700">User</text>
<rect x="220" y="170" width="260" height="54" fill="#1e293b" stroke="#334155"/>
<text x="232" y="203" font-size="16" font-family="Arial" fill="#ffffff" font-weight="700">Role</text>
<rect x="480" y="170" width="260" height="54" fill="#1e293b" stroke="#334155"/>
<text x="492" y="203" font-size="16" font-family="Arial" fill="#ffffff" font-weight="700">App</text>
<rect x="740" y="170" width="130" height="54" fill="#1e293b" stroke="#334155"/>
<text x="752" y="203" font-size="16" font-family="Arial" fill="#ffffff" font-weight="700">Decision</text>
<rect x="870" y="170" width="370" height="54" fill="#1e293b" stroke="#334155"/>
<text x="882" y="203" font-size="16" font-family="Arial" fill="#ffffff" font-weight="700">Rationale</text>
<rect x="40" y="224" width="180" height="54" fill="#ffffff" stroke="#cbd5e1"/>
<text x="50" y="256" font-size="14" font-family="Arial" fill="#0f172a">Jamal Smith</text>
<rect x="220" y="224" width="260" height="54" fill="#ffffff" stroke="#cbd5e1"/>
<text x="230" y="256" font-size="14" font-family="Arial" fill="#0f172a">Billing Specialist</text>
<rect x="480" y="224" width="260" height="54" fill="#ffffff" stroke="#cbd5e1"/>
<text x="490" y="256" font-size="14" font-family="Arial" fill="#0f172a">Google Drive Billing Folder</text>
<rect x="740" y="224" width="130" height="54" fill="#ffffff" stroke="#cbd5e1"/>
<text x="750" y="256" font-size="14" font-family="Arial" fill="#166534">Keep</text>
<rect x="870" y="224" width="370" height="54" fill="#ffffff" stroke="#cbd5e1"/>
<text x="880" y="256" font-size="14" font-family="Arial" fill="#0f172a">Matches job role</text>
<rect x="40" y="278" width="180" height="54" fill="#f1f5f9" stroke="#cbd5e1"/>
<text x="50" y="310" font-size="14" font-family="Arial" fill="#0f172a">Maya Turner</text>
<rect x="220" y="278" width="260" height="54" fill="#f1f5f9" stroke="#cbd5e1"/>
<text x="230" y="310" font-size="14" font-family="Arial" fill="#0f172a">Operations Manager</text>
<rect x="480" y="278" width="260" height="54" fill="#f1f5f9" stroke="#cbd5e1"/>
<text x="490" y="310" font-size="14" font-family="Arial" fill="#0f172a">CRM Admin Console</text>
<rect x="740" y="278" width="130" height="54" fill="#f1f5f9" stroke="#cbd5e1"/>
<text x="750" y="310" font-size="14" font-family="Arial" fill="#0f172a">Approve</text>
<rect x="870" y="278" width="370" height="54" fill="#f1f5f9" stroke="#cbd5e1"/>
<text x="880" y="310" font-size="14" font-family="Arial" fill="#0f172a">Role requires workflow admin</text>
<rect x="40" y="332" width="180" height="54" fill="#ffffff" stroke="#cbd5e1"/>
<text x="50" y="364" font-size="14" font-family="Arial" fill="#0f172a">Alex Lee</text>
<rect x="220" y="332" width="260" height="54" fill="#ffffff" stroke="#cbd5e1"/>
<text x="230" y="364" font-size="14" font-family="Arial" fill="#0f172a">Former Contractor</text>
<rect x="480" y="332" width="260" height="54" fill="#ffffff" stroke="#cbd5e1"/>
<text x="490" y="364" font-size="14" font-family="Arial" fill="#0f172a">Slack Workspace</text>
<rect x="740" y="332" width="130" height="54" fill="#ffffff" stroke="#cbd5e1"/>
<text x="750" y="364" font-size="14" font-family="Arial" fill="#991b1b">Remove</text>
<rect x="870" y="332" width="370" height="54" fill="#ffffff" stroke="#cbd5e1"/>
<text x="880" y="364" font-size="14" font-family="Arial" fill="#0f172a">Contract ended</text>
<rect x="40" y="386" width="180" height="54" fill="#f1f5f9" stroke="#cbd5e1"/>
<text x="50" y="418" font-size="14" font-family="Arial" fill="#0f172a">Keisha Davis</text>
<rect x="220" y="386" width="260" height="54" fill="#f1f5f9" stroke="#cbd5e1"/>
<text x="230" y="418" font-size="14" font-family="Arial" fill="#0f172a">Finance Analyst</text>
<rect x="480" y="386" width="260" height="54" fill="#f1f5f9" stroke="#cbd5e1"/>
<text x="490" y="418" font-size="14" font-family="Arial" fill="#0f172a">Billing App</text>
<rect x="740" y="386" width="130" height="54" fill="#f1f5f9" stroke="#cbd5e1"/>
<text x="750" y="418" font-size="14" font-family="Arial" fill="#166534">Keep</text>
<rect x="870" y="386" width="370" height="54" fill="#f1f5f9" stroke="#cbd5e1"/>
<text x="880" y="418" font-size="14" font-family="Arial" fill="#0f172a">Required for billing reconciliation</text>
<rect x="40" y="440" width="180" height="54" fill="#ffffff" stroke="#cbd5e1"/>
<text x="50" y="472" font-size="14" font-family="Arial" fill="#0f172a">Ravi Patel</text>
<rect x="220" y="440" width="260" height="54" fill="#ffffff" stroke="#cbd5e1"/>
<text x="230" y="472" font-size="14" font-family="Arial" fill="#0f172a">IT Administrator</text>
<rect x="480" y="440" width="260" height="54" fill="#ffffff" stroke="#cbd5e1"/>
<text x="490" y="472" font-size="14" font-family="Arial" fill="#0f172a">Google Admin Console</text>
<rect x="740" y="440" width="130" height="54" fill="#ffffff" stroke="#cbd5e1"/>
<text x="750" y="472" font-size="14" font-family="Arial" fill="#0f172a">Approve</text>
<rect x="870" y="440" width="370" height="54" fill="#ffffff" stroke="#cbd5e1"/>
<text x="880" y="472" font-size="14" font-family="Arial" fill="#0f172a">Privileged role documented</text>
<rect x="40" y="494" width="180" height="54" fill="#f1f5f9" stroke="#cbd5e1"/>
<text x="50" y="526" font-size="14" font-family="Arial" fill="#0f172a">Olivia Chen</text>
<rect x="220" y="494" width="260" height="54" fill="#f1f5f9" stroke="#cbd5e1"/>
<text x="230" y="526" font-size="14" font-family="Arial" fill="#0f172a">Sales Associate</text>
<rect x="480" y="494" width="260" height="54" fill="#f1f5f9" stroke="#cbd5e1"/>
<text x="490" y="526" font-size="14" font-family="Arial" fill="#0f172a">Customer Export Folder</text>
<rect x="740" y="494" width="130" height="54" fill="#f1f5f9" stroke="#cbd5e1"/>
<text x="750" y="526" font-size="14" font-family="Arial" fill="#0f172a">Reduce</text>
<rect x="870" y="494" width="370" height="54" fill="#f1f5f9" stroke="#cbd5e1"/>
<text x="880" y="526" font-size="14" font-family="Arial" fill="#0f172a">No current business need</text>
<text x="40" y="720" font-size="17" font-family="Arial" fill="#475569">Synthetic screenshot for GitHub README and public security portfolio documentation</text>
</svg>