<svg xmlns="http://www.w3.org/2000/svg" width="1280" height="760" viewBox="0 0 1280 760">
<rect width="1280" height="760" fill="#f8fafc"/>
<rect x="20" y="20" width="1240" height="720" rx="24" fill="#e2e8f0"/>
<rect x="40" y="40" width="1200" height="96" rx="16" fill="#0f172a"/>
<text x="70" y="82" font-size="30" font-family="Arial" fill="#ffffff" font-weight="700">MFA Enforcement Matrix</text>
<text x="70" y="114" font-size="18" font-family="Arial" fill="#cbd5e1">Authentication requirements by system and user population</text>
<rect x="40" y="170" width="300" height="54" fill="#1e293b" stroke="#334155"/>
<text x="52" y="203" font-size="16" font-family="Arial" fill="#ffffff" font-weight="700">System</text>
<rect x="340" y="170" width="250" height="54" fill="#1e293b" stroke="#334155"/>
<text x="352" y="203" font-size="16" font-family="Arial" fill="#ffffff" font-weight="700">Population</text>
<rect x="590" y="170" width="250" height="54" fill="#1e293b" stroke="#334155"/>
<text x="602" y="203" font-size="16" font-family="Arial" fill="#ffffff" font-weight="700">Requirement</text>
<rect x="840" y="170" width="400" height="54" fill="#1e293b" stroke="#334155"/>
<text x="852" y="203" font-size="16" font-family="Arial" fill="#ffffff" font-weight="700">Status</text>
<rect x="40" y="224" width="300" height="54" fill="#ffffff" stroke="#cbd5e1"/>
<text x="50" y="256" font-size="14" font-family="Arial" fill="#0f172a">Email</text>
<rect x="340" y="224" width="250" height="54" fill="#ffffff" stroke="#cbd5e1"/>
<text x="350" y="256" font-size="14" font-family="Arial" fill="#0f172a">All users</text>
<rect x="590" y="224" width="250" height="54" fill="#ffffff" stroke="#cbd5e1"/>
<text x="600" y="256" font-size="14" font-family="Arial" fill="#0f172a">Required</text>
<rect x="840" y="224" width="400" height="54" fill="#ffffff" stroke="#cbd5e1"/>
<text x="850" y="256" font-size="14" font-family="Arial" fill="#166534">Implemented</text>
<rect x="40" y="278" width="300" height="54" fill="#f1f5f9" stroke="#cbd5e1"/>
<text x="50" y="310" font-size="14" font-family="Arial" fill="#0f172a">Admin Console</text>
<rect x="340" y="278" width="250" height="54" fill="#f1f5f9" stroke="#cbd5e1"/>
<text x="350" y="310" font-size="14" font-family="Arial" fill="#0f172a">Admins only</text>
<rect x="590" y="278" width="250" height="54" fill="#f1f5f9" stroke="#cbd5e1"/>
<text x="600" y="310" font-size="14" font-family="Arial" fill="#0f172a">Required</text>
<rect x="840" y="278" width="400" height="54" fill="#f1f5f9" stroke="#cbd5e1"/>
<text x="850" y="310" font-size="14" font-family="Arial" fill="#166534">Implemented</text>
<rect x="40" y="332" width="300" height="54" fill="#ffffff" stroke="#cbd5e1"/>
<text x="50" y="364" font-size="14" font-family="Arial" fill="#0f172a">Billing App</text>
<rect x="340" y="332" width="250" height="54" fill="#ffffff" stroke="#cbd5e1"/>
<text x="350" y="364" font-size="14" font-family="Arial" fill="#0f172a">All users</text>
<rect x="590" y="332" width="250" height="54" fill="#ffffff" stroke="#cbd5e1"/>
<text x="600" y="364" font-size="14" font-family="Arial" fill="#0f172a">Required</text>
<rect x="840" y="332" width="400" height="54" fill="#ffffff" stroke="#cbd5e1"/>
<text x="850" y="364" font-size="14" font-family="Arial" fill="#92400e">In Progress</text>
<rect x="40" y="386" width="300" height="54" fill="#f1f5f9" stroke="#cbd5e1"/>
<text x="50" y="418" font-size="14" font-family="Arial" fill="#0f172a">CRM</text>
<rect x="340" y="386" width="250" height="54" fill="#f1f5f9" stroke="#cbd5e1"/>
<text x="350" y="418" font-size="14" font-family="Arial" fill="#0f172a">All users</text>
<rect x="590" y="386" width="250" height="54" fill="#f1f5f9" stroke="#cbd5e1"/>
<text x="600" y="418" font-size="14" font-family="Arial" fill="#0f172a">Required</text>
<rect x="840" y="386" width="400" height="54" fill="#f1f5f9" stroke="#cbd5e1"/>
<text x="850" y="418" font-size="14" font-family="Arial" fill="#166534">Implemented</text>
<rect x="40" y="440" width="300" height="54" fill="#ffffff" stroke="#cbd5e1"/>
<text x="50" y="472" font-size="14" font-family="Arial" fill="#0f172a">Project Management</text>
<rect x="340" y="440" width="250" height="54" fill="#ffffff" stroke="#cbd5e1"/>
<text x="350" y="472" font-size="14" font-family="Arial" fill="#0f172a">All users</text>
<rect x="590" y="440" width="250" height="54" fill="#ffffff" stroke="#cbd5e1"/>
<text x="600" y="472" font-size="14" font-family="Arial" fill="#0f172a">Recommended</text>
<rect x="840" y="440" width="400" height="54" fill="#ffffff" stroke="#cbd5e1"/>
<text x="850" y="472" font-size="14" font-family="Arial" fill="#0f172a">Planned</text>
<text x="40" y="720" font-size="17" font-family="Arial" fill="#475569">Synthetic screenshot for GitHub README and public security portfolio documentation</text>
</svg>