<svg xmlns="http://www.w3.org/2000/svg" width="1280" height="760" viewBox="0 0 1280 760">
<rect width="1280" height="760" fill="#f8fafc"/>
<rect x="20" y="20" width="1240" height="720" rx="24" fill="#e2e8f0"/>
<rect x="40" y="40" width="1200" height="96" rx="16" fill="#0f172a"/>
<text x="70" y="82" font-size="30" font-family="Arial" fill="#ffffff" font-weight="700">Privileged Access Register</text>
<text x="70" y="114" font-size="18" font-family="Arial" fill="#cbd5e1">Admin access requests with approval status and conditions</text>
<rect x="40" y="170" width="120" height="54" fill="#1e293b" stroke="#334155"/>
<text x="52" y="203" font-size="16" font-family="Arial" fill="#ffffff" font-weight="700">ID</text>
<rect x="160" y="170" width="260" height="54" fill="#1e293b" stroke="#334155"/>
<text x="172" y="203" font-size="16" font-family="Arial" fill="#ffffff" font-weight="700">System</text>
<rect x="420" y="170" width="200" height="54" fill="#1e293b" stroke="#334155"/>
<text x="432" y="203" font-size="16" font-family="Arial" fill="#ffffff" font-weight="700">User</text>
<rect x="620" y="170" width="150" height="54" fill="#1e293b" stroke="#334155"/>
<text x="632" y="203" font-size="16" font-family="Arial" fill="#ffffff" font-weight="700">Decision</text>
<rect x="770" y="170" width="470" height="54" fill="#1e293b" stroke="#334155"/>
<text x="782" y="203" font-size="16" font-family="Arial" fill="#ffffff" font-weight="700">Condition</text>
<rect x="40" y="224" width="120" height="54" fill="#ffffff" stroke="#cbd5e1"/>
<text x="50" y="256" font-size="14" font-family="Arial" fill="#0f172a">PAM-001</text>
<rect x="160" y="224" width="260" height="54" fill="#ffffff" stroke="#cbd5e1"/>
<text x="170" y="256" font-size="14" font-family="Arial" fill="#0f172a">Google Admin Console</text>
<rect x="420" y="224" width="200" height="54" fill="#ffffff" stroke="#cbd5e1"/>
<text x="430" y="256" font-size="14" font-family="Arial" fill="#0f172a">Ravi Patel</text>
<rect x="620" y="224" width="150" height="54" fill="#ffffff" stroke="#cbd5e1"/>
<text x="630" y="256" font-size="14" font-family="Arial" fill="#0f172a">Approved</text>
<rect x="770" y="224" width="470" height="54" fill="#ffffff" stroke="#cbd5e1"/>
<text x="780" y="256" font-size="14" font-family="Arial" fill="#0f172a">Quarterly review required</text>
<rect x="40" y="278" width="120" height="54" fill="#f1f5f9" stroke="#cbd5e1"/>
<text x="50" y="310" font-size="14" font-family="Arial" fill="#0f172a">PAM-002</text>
<rect x="160" y="278" width="260" height="54" fill="#f1f5f9" stroke="#cbd5e1"/>
<text x="170" y="310" font-size="14" font-family="Arial" fill="#0f172a">CRM Admin</text>
<rect x="420" y="278" width="200" height="54" fill="#f1f5f9" stroke="#cbd5e1"/>
<text x="430" y="310" font-size="14" font-family="Arial" fill="#0f172a">Maya Turner</text>
<rect x="620" y="278" width="150" height="54" fill="#f1f5f9" stroke="#cbd5e1"/>
<text x="630" y="310" font-size="14" font-family="Arial" fill="#0f172a">Approved</text>
<rect x="770" y="278" width="470" height="54" fill="#f1f5f9" stroke="#cbd5e1"/>
<text x="780" y="310" font-size="14" font-family="Arial" fill="#0f172a">Business owner approval retained</text>
<rect x="40" y="332" width="120" height="54" fill="#ffffff" stroke="#cbd5e1"/>
<text x="50" y="364" font-size="14" font-family="Arial" fill="#0f172a">PAM-003</text>
<rect x="160" y="332" width="260" height="54" fill="#ffffff" stroke="#cbd5e1"/>
<text x="170" y="364" font-size="14" font-family="Arial" fill="#0f172a">Billing App Admin</text>
<rect x="420" y="332" width="200" height="54" fill="#ffffff" stroke="#cbd5e1"/>
<text x="430" y="364" font-size="14" font-family="Arial" fill="#0f172a">Keisha Davis</text>
<rect x="620" y="332" width="150" height="54" fill="#ffffff" stroke="#cbd5e1"/>
<text x="630" y="364" font-size="14" font-family="Arial" fill="#0f172a">Pending</text>
<rect x="770" y="332" width="470" height="54" fill="#ffffff" stroke="#cbd5e1"/>
<text x="780" y="364" font-size="14" font-family="Arial" fill="#0f172a">Awaiting manager approval</text>
<rect x="40" y="386" width="120" height="54" fill="#f1f5f9" stroke="#cbd5e1"/>
<text x="50" y="418" font-size="14" font-family="Arial" fill="#0f172a">PAM-004</text>
<rect x="160" y="386" width="260" height="54" fill="#f1f5f9" stroke="#cbd5e1"/>
<text x="170" y="418" font-size="14" font-family="Arial" fill="#0f172a">Shared Admin Account</text>
<rect x="420" y="386" width="200" height="54" fill="#f1f5f9" stroke="#cbd5e1"/>
<text x="430" y="418" font-size="14" font-family="Arial" fill="#0f172a">Legacy</text>
<rect x="620" y="386" width="150" height="54" fill="#f1f5f9" stroke="#cbd5e1"/>
<text x="630" y="418" font-size="14" font-family="Arial" fill="#991b1b">Remove</text>
<rect x="770" y="386" width="470" height="54" fill="#f1f5f9" stroke="#cbd5e1"/>
<text x="780" y="418" font-size="14" font-family="Arial" fill="#0f172a">Replace with named admin accounts</text>
<text x="40" y="720" font-size="17" font-family="Arial" fill="#475569">Synthetic screenshot for GitHub README and public security portfolio documentation</text>
</svg>